<svg width="38" height="38" viewBox="0 0 38 38" fill="none" xmlns="http://www.w3.org/2000/svg">
<circle cx="19" cy="19" r="19" fill="url(#paint0_linear_3220_10590)"/>
<g clip-path="url(#clip0_3220_10590)">
<path d="M9.243 13.8545L18.49 8.31048C18.6454 8.21723 18.8233 8.16797 19.0045 8.16797C19.1857 8.16797 19.3636 8.21723 19.519 8.31048L28.757 13.8555C28.8311 13.8999 28.8925 13.9628 28.9351 14.0379C28.9776 14.1131 29 14.1981 29 14.2845V27.0005C29 27.2657 28.8946 27.5201 28.7071 27.7076C28.5196 27.8951 28.2652 28.0005 28 28.0005H10C9.73478 28.0005 9.48043 27.8951 9.29289 27.7076C9.10536 27.5201 9 27.2657 9 27.0005V14.2835C8.99998 14.1971 9.02236 14.1121 9.06495 14.0369C9.10753 13.9618 9.16888 13.8989 9.243 13.8545ZM25.346 15.2445L19.061 20.6835L12.647 15.2385L11.353 16.7625L19.073 23.3175L26.654 16.7575L25.346 15.2445Z" fill="white"/>
</g>
<defs>
<linearGradient id="paint0_linear_3220_10590" x1="9.97263" y1="2" x2="29.3139" y2="35.5" gradientUnits="userSpaceOnUse">
<stop stop-color="#305FA7"/>
<stop offset="1" stop-color="#14366A"/>
</linearGradient>
<clipPath id="clip0_3220_10590">
<rect width="24" height="24" fill="white" transform="translate(7 7)"/>
</clipPath>
</defs>
</svg>
