<svg width="38" height="38" viewBox="0 0 38 38" fill="none" xmlns="http://www.w3.org/2000/svg">
<circle cx="19" cy="19" r="19" fill="url(#paint0_linear_3220_10596)"/>
<path d="M24.4314 16.152C24.5538 16.152 24.6749 16.1531 24.7955 16.1596C24.1582 12.8195 20.5711 10.2637 16.242 10.2637C11.4621 10.2637 7.58789 13.38 7.58789 17.224C7.58789 19.478 8.91947 21.4816 10.9847 22.7534C11.0114 22.7697 11.0641 22.8017 11.0641 22.8017L10.228 25.3203L13.3565 23.7881C13.3565 23.7881 13.4546 23.8149 13.5037 23.8289C14.3633 24.059 15.2854 24.1837 16.242 24.1837C16.437 24.1837 16.6309 24.1761 16.8236 24.1668C16.646 23.6372 16.5485 23.0808 16.5485 22.5064C16.5485 18.9962 20.0792 16.152 24.4314 16.152Z" fill="white"/>
<path d="M17.7441 22.697C17.7441 25.761 20.8792 28.2446 24.7456 28.2446C25.5188 28.2446 26.2647 28.1446 26.9595 27.9605C26.9996 27.9506 27.079 27.9281 27.079 27.9281L29.6085 29.1504L28.9322 27.1421C28.9322 27.1421 28.9751 27.1169 28.9966 27.1042C30.6665 26.0908 31.7441 24.4942 31.7441 22.697C31.7441 19.634 28.6103 17.1504 24.7456 17.1504C20.8792 17.1504 17.7441 19.634 17.7441 22.697Z" fill="white"/>
<defs>
<linearGradient id="paint0_linear_3220_10596" x1="9.97263" y1="2" x2="29.3139" y2="35.5" gradientUnits="userSpaceOnUse">
<stop stop-color="#D27D55"/>
<stop offset="1" stop-color="#B55B32"/>
</linearGradient>
</defs>
</svg>
