<svg width="38" height="38" viewBox="0 0 38 38" fill="none" xmlns="http://www.w3.org/2000/svg">
<circle cx="19" cy="19" r="19" fill="url(#paint0_linear_3220_10584)"/>
<path d="M19.04 9.35352C21.5975 9.35462 23.9978 10.3503 25.8027 12.1572C27.6077 13.9643 28.6016 16.3664 28.6006 18.9209C28.5985 24.191 24.3112 28.4793 19.04 28.4814H19.0361C17.4361 28.4809 15.8641 28.079 14.4678 27.3174L9.39941 28.6475L10.7559 23.6934C9.91922 22.2434 9.47877 20.5981 9.47949 18.9131C9.48173 13.642 13.7705 9.35355 19.04 9.35352ZM19.043 10.9678C14.6601 10.968 11.0956 14.5321 11.0938 18.9131C11.0931 20.4146 11.5132 21.8774 12.3086 23.1426L12.498 23.4434L11.6953 26.375L14.7021 25.5859L14.9922 25.7588C16.2122 26.4828 17.6112 26.8657 19.0371 26.8662H19.04C23.4197 26.8662 26.9845 23.3014 26.9863 18.9199C26.9872 16.7966 26.1614 14.7999 24.6611 13.2979C23.1609 11.7959 21.1653 10.9685 19.043 10.9678ZM16.1133 14.5068C16.2599 14.5142 16.4574 14.4512 16.6514 14.917C16.8505 15.3956 17.328 16.5709 17.3877 16.6904C17.4474 16.8099 17.4866 16.9491 17.4072 17.1084C17.3277 17.2675 17.2881 17.3676 17.1689 17.5068C17.0496 17.6462 16.918 17.8187 16.8105 17.9258C16.691 18.0448 16.5661 18.1742 16.7051 18.4131C16.8444 18.6522 17.3241 19.4349 18.0342 20.0684C18.9462 20.8819 19.7158 21.1343 19.9551 21.2539C20.1937 21.3734 20.3334 21.3534 20.4727 21.1943C20.612 21.035 21.0701 20.497 21.2295 20.2578C21.3886 20.0188 21.5478 20.0581 21.7666 20.1377C21.9856 20.2175 23.1605 20.7955 23.3994 20.915C23.6382 21.0346 23.7977 21.0947 23.8574 21.1943C23.9169 21.2947 23.9165 21.7726 23.7178 22.3301C23.5187 22.888 22.5645 23.3971 22.1055 23.4658C21.6939 23.5274 21.1728 23.553 20.6006 23.3711C20.2537 23.261 19.8089 23.1142 19.2393 22.8682C16.8429 21.8334 15.2776 19.4202 15.1582 19.2607C15.0385 19.101 14.1827 17.9656 14.1826 16.79C14.1826 15.6143 14.7996 15.036 15.0186 14.7969C15.2373 14.5579 15.496 14.4982 15.6553 14.498C15.8144 14.498 15.9742 14.4999 16.1133 14.5068Z" fill="white"/>
<defs>
<linearGradient id="paint0_linear_3220_10584" x1="9.97263" y1="2" x2="29.3139" y2="35.5" gradientUnits="userSpaceOnUse">
<stop stop-color="#5FE16E"/>
<stop offset="1" stop-color="#15A126"/>
</linearGradient>
</defs>
</svg>
