<svg width="38" height="38" viewBox="0 0 38 38" fill="none" xmlns="http://www.w3.org/2000/svg">
<circle cx="19" cy="19" r="19" fill="url(#paint0_linear_3220_10571)"/>
<path d="M9.79251 17.9351C14.6526 15.7731 17.8935 14.3478 19.5151 13.6591C24.145 11.6929 25.107 11.3514 25.7341 11.34C25.872 11.3376 26.1804 11.3725 26.3801 11.538C26.5488 11.6777 26.5952 11.8665 26.6174 11.999C26.6396 12.1314 26.6673 12.4332 26.6453 12.6691C26.3944 15.3607 25.3088 21.8925 24.7564 24.9071C24.5227 26.1827 24.0626 26.6104 23.6171 26.6523C22.6489 26.7432 21.9138 25.999 20.9761 25.3714C19.5087 24.3893 18.6798 23.778 17.2555 22.8197C15.6095 21.7122 16.6765 21.1035 17.6146 20.1087C17.8601 19.8483 22.1258 15.8868 22.2084 15.5274C22.2187 15.4825 22.2283 15.3149 22.1308 15.2265C22.0333 15.138 21.8894 15.1682 21.7856 15.1923C21.6384 15.2264 19.2944 16.8083 14.7534 19.938C14.088 20.4045 13.4854 20.6318 12.9454 20.6199C12.3501 20.6068 11.2051 20.2763 10.3539 19.9937C9.30978 19.6472 8.47998 19.464 8.55224 18.8755C8.58987 18.569 9.0033 18.2555 9.79251 17.9351Z" fill="white"/>
<defs>
<linearGradient id="paint0_linear_3220_10571" x1="9.97263" y1="2" x2="29.3139" y2="35.5" gradientUnits="userSpaceOnUse">
<stop stop-color="#50B0FB"/>
<stop offset="1" stop-color="#087BD5"/>
</linearGradient>
</defs>
</svg>
