<svg width="21" height="21" viewBox="0 0 21 21" fill="none" xmlns="http://www.w3.org/2000/svg">
<mask id="path-1-inside-1_3268_34094" fill="white">
<path d="M10.5 21C8.53125 20.9727 6.76758 20.4941 5.20898 19.5645C3.62305 18.6348 2.36523 17.377 1.43555 15.791C0.505859 14.2324 0.0273438 12.4688 0 10.5C0.0273438 8.53125 0.505859 6.76758 1.43555 5.20898C2.36523 3.62305 3.62305 2.36523 5.20898 1.43555C6.76758 0.505859 8.53125 0.0273438 10.5 0C12.4688 0.0273438 14.2324 0.505859 15.791 1.43555C17.377 2.36523 18.6348 3.62305 19.5645 5.20898C20.4941 6.76758 20.9727 8.53125 21 10.5C20.9727 12.4688 20.4941 14.2324 19.5645 15.791C18.6348 17.377 17.377 18.6348 15.791 19.5645C14.2324 20.4941 12.4688 20.9727 10.5 21ZM15.1348 8.57227C15.5176 8.10742 15.5176 7.64258 15.1348 7.17773C14.6699 6.79492 14.2051 6.79492 13.7402 7.17773L9.1875 11.7305L7.25977 9.80273C6.79492 9.41992 6.33008 9.41992 5.86523 9.80273C5.48242 10.2676 5.48242 10.7324 5.86523 11.1973L8.49023 13.8223C8.95508 14.2051 9.41992 14.2051 9.88477 13.8223L15.1348 8.57227Z"/>
</mask>
<path d="M10.5 21C8.53125 20.9727 6.76758 20.4941 5.20898 19.5645C3.62305 18.6348 2.36523 17.377 1.43555 15.791C0.505859 14.2324 0.0273438 12.4688 0 10.5C0.0273438 8.53125 0.505859 6.76758 1.43555 5.20898C2.36523 3.62305 3.62305 2.36523 5.20898 1.43555C6.76758 0.505859 8.53125 0.0273438 10.5 0C12.4688 0.0273438 14.2324 0.505859 15.791 1.43555C17.377 2.36523 18.6348 3.62305 19.5645 5.20898C20.4941 6.76758 20.9727 8.53125 21 10.5C20.9727 12.4688 20.4941 14.2324 19.5645 15.791C18.6348 17.377 17.377 18.6348 15.791 19.5645C14.2324 20.4941 12.4688 20.9727 10.5 21ZM15.1348 8.57227C15.5176 8.10742 15.5176 7.64258 15.1348 7.17773C14.6699 6.79492 14.2051 6.79492 13.7402 7.17773L9.1875 11.7305L7.25977 9.80273C6.79492 9.41992 6.33008 9.41992 5.86523 9.80273C5.48242 10.2676 5.48242 10.7324 5.86523 11.1973L8.49023 13.8223C8.95508 14.2051 9.41992 14.2051 9.88477 13.8223L15.1348 8.57227Z" fill="white"/>
<path d="M10.5 21C8.53125 20.9727 6.76758 20.4941 5.20898 19.5645C3.62305 18.6348 2.36523 17.377 1.43555 15.791C0.505859 14.2324 0.0273438 12.4688 0 10.5C0.0273438 8.53125 0.505859 6.76758 1.43555 5.20898C2.36523 3.62305 3.62305 2.36523 5.20898 1.43555C6.76758 0.505859 8.53125 0.0273438 10.5 0C12.4688 0.0273438 14.2324 0.505859 15.791 1.43555C17.377 2.36523 18.6348 3.62305 19.5645 5.20898C20.4941 6.76758 20.9727 8.53125 21 10.5C20.9727 12.4688 20.4941 14.2324 19.5645 15.791C18.6348 17.377 17.377 18.6348 15.791 19.5645C14.2324 20.4941 12.4688 20.9727 10.5 21ZM15.1348 8.57227C15.5176 8.10742 15.5176 7.64258 15.1348 7.17773C14.6699 6.79492 14.2051 6.79492 13.7402 7.17773L9.1875 11.7305L7.25977 9.80273C6.79492 9.41992 6.33008 9.41992 5.86523 9.80273C5.48242 10.2676 5.48242 10.7324 5.86523 11.1973L8.49023 13.8223C8.95508 14.2051 9.41992 14.2051 9.88477 13.8223L15.1348 8.57227Z" fill="url(#paint0_linear_3268_34094)"/>
<path d="M10.5 21L10.4861 21.9999L10.5 22.0001L10.5139 21.9999L10.5 21ZM5.20898 19.5645L5.72128 18.7056L5.7147 18.7018L5.20898 19.5645ZM1.43555 15.791L2.29827 15.2853L2.29437 15.2787L1.43555 15.791ZM0 10.5L-0.999904 10.4861L-1.0001 10.5L-0.999904 10.5139L0 10.5ZM1.43555 5.20898L2.29439 5.72128L2.29824 5.7147L1.43555 5.20898ZM5.20898 1.43555L5.71472 2.29827L5.72126 2.29437L5.20898 1.43555ZM10.5 0L10.5139 -0.999904L10.5 -1.0001L10.4861 -0.999904L10.5 0ZM15.791 1.43555L15.2787 2.29439L15.2853 2.29824L15.791 1.43555ZM19.5645 5.20898L18.7017 5.71472L18.7056 5.72126L19.5645 5.20898ZM21 10.5L21.9999 10.5139L22.0001 10.5L21.9999 10.4861L21 10.5ZM19.5645 15.791L18.7056 15.2787L18.7018 15.2853L19.5645 15.791ZM15.791 19.5645L15.2853 18.7017L15.2787 18.7056L15.791 19.5645ZM15.1348 8.57227L15.8419 9.27937L15.876 9.24524L15.9067 9.20797L15.1348 8.57227ZM15.1348 7.17773L15.9067 6.54203L15.8452 6.46732L15.7705 6.4058L15.1348 7.17773ZM13.7402 7.17773L13.1045 6.4058L13.0673 6.43649L13.0331 6.47063L13.7402 7.17773ZM9.1875 11.7305L8.48039 12.4376L9.1875 13.1447L9.89461 12.4376L9.1875 11.7305ZM7.25977 9.80273L7.96687 9.09563L7.93274 9.06149L7.89547 9.0308L7.25977 9.80273ZM5.86523 9.80273L5.22953 9.0308L5.15482 9.09232L5.0933 9.16703L5.86523 9.80273ZM5.86523 11.1973L5.0933 11.833L5.12399 11.8702L5.15813 11.9044L5.86523 11.1973ZM8.49023 13.8223L7.78313 14.5294L7.81726 14.5635L7.85453 14.5942L8.49023 13.8223ZM9.88477 13.8223L10.5205 14.5942L10.5577 14.5635L10.5919 14.5294L9.88477 13.8223ZM10.5 21L10.5139 20.0001C8.70539 19.975 7.11632 19.5378 5.72126 18.7056L5.20898 19.5645L4.69671 20.4233C6.41884 21.4505 8.35711 21.9703 10.4861 21.9999L10.5 21ZM5.20898 19.5645L5.7147 18.7018C4.27633 17.8586 3.14143 16.7237 2.29824 15.2853L1.43555 15.791L0.572849 16.2967C1.58904 18.0302 2.96976 19.411 4.70326 20.4272L5.20898 19.5645ZM1.43555 15.791L2.29437 15.2787C1.46223 13.8837 1.02502 12.2946 0.999904 10.4861L0 10.5L-0.999904 10.5139C-0.970334 12.6429 -0.450511 14.5812 0.576727 16.3033L1.43555 15.791ZM0 10.5L0.999904 10.5139C1.02502 8.70539 1.46223 7.11632 2.29437 5.72126L1.43555 5.20898L0.576727 4.69671C-0.450511 6.41884 -0.970334 8.35711 -0.999904 10.4861L0 10.5ZM1.43555 5.20898L2.29824 5.7147C3.14143 4.27633 4.27633 3.14143 5.7147 2.29824L5.20898 1.43555L4.70326 0.572849C2.96976 1.58904 1.58904 2.96976 0.572849 4.70326L1.43555 5.20898ZM5.20898 1.43555L5.72126 2.29437C7.11632 1.46223 8.70539 1.02502 10.5139 0.999904L10.5 0L10.4861 -0.999904C8.35711 -0.970334 6.41884 -0.450511 4.69671 0.576727L5.20898 1.43555ZM10.5 0L10.4861 0.999904C12.2946 1.02502 13.8837 1.46223 15.2787 2.29437L15.791 1.43555L16.3033 0.576727C14.5812 -0.450511 12.6429 -0.970334 10.5139 -0.999904L10.5 0ZM15.791 1.43555L15.2853 2.29824C16.7237 3.14143 17.8586 4.27633 18.7018 5.7147L19.5645 5.20898L20.4272 4.70326C19.411 2.96976 18.0302 1.58904 16.2967 0.572849L15.791 1.43555ZM19.5645 5.20898L18.7056 5.72126C19.5378 7.11632 19.975 8.70539 20.0001 10.5139L21 10.5L21.9999 10.4861C21.9703 8.35711 21.4505 6.41884 20.4233 4.69671L19.5645 5.20898ZM21 10.5L20.0001 10.4861C19.975 12.2946 19.5378 13.8837 18.7056 15.2787L19.5645 15.791L20.4233 16.3033C21.4505 14.5812 21.9703 12.6429 21.9999 10.5139L21 10.5ZM19.5645 15.791L18.7018 15.2853C17.8586 16.7237 16.7237 17.8586 15.2853 18.7018L15.791 19.5645L16.2967 20.4272C18.0302 19.411 19.411 18.0302 20.4272 16.2967L19.5645 15.791ZM15.791 19.5645L15.2787 18.7056C13.8837 19.5378 12.2946 19.975 10.4861 20.0001L10.5 21L10.5139 21.9999C12.6429 21.9703 14.5812 21.4505 16.3033 20.4233L15.791 19.5645ZM15.1348 8.57227L15.9067 9.20797C16.2013 8.85019 16.4219 8.4005 16.4219 7.875C16.4219 7.3495 16.2013 6.89981 15.9067 6.54203L15.1348 7.17773L14.3628 7.81344C14.4073 7.86746 14.4221 7.89913 14.4254 7.90712C14.4276 7.91247 14.4219 7.89972 14.4219 7.875C14.4219 7.85028 14.4276 7.83753 14.4254 7.84288C14.4221 7.85087 14.4073 7.88254 14.3628 7.93656L15.1348 8.57227ZM15.1348 7.17773L15.7705 6.4058C15.4127 6.11116 14.963 5.89062 14.4375 5.89062C13.912 5.89062 13.4623 6.11116 13.1045 6.4058L13.7402 7.17773L14.3759 7.94966C14.43 7.90518 14.4616 7.89037 14.4696 7.88708C14.475 7.88488 14.4622 7.89062 14.4375 7.89062C14.4128 7.89062 14.4 7.88488 14.4054 7.88708C14.4134 7.89037 14.445 7.90518 14.4991 7.94966L15.1348 7.17773ZM13.7402 7.17773L13.0331 6.47063L8.48039 11.0234L9.1875 11.7305L9.89461 12.4376L14.4473 7.88484L13.7402 7.17773ZM9.1875 11.7305L9.89461 11.0234L7.96687 9.09563L7.25977 9.80273L6.55266 10.5098L8.48039 12.4376L9.1875 11.7305ZM7.25977 9.80273L7.89547 9.0308C7.53769 8.73616 7.088 8.51562 6.5625 8.51562C6.037 8.51562 5.58731 8.73616 5.22953 9.0308L5.86523 9.80273L6.50094 10.5747C6.55496 10.5302 6.58663 10.5154 6.59462 10.5121C6.59997 10.5099 6.58722 10.5156 6.5625 10.5156C6.53778 10.5156 6.52503 10.5099 6.53038 10.5121C6.53837 10.5154 6.57004 10.5302 6.62406 10.5747L7.25977 9.80273ZM5.86523 9.80273L5.0933 9.16703C4.79866 9.52481 4.57812 9.9745 4.57812 10.5C4.57812 11.0255 4.79866 11.4752 5.0933 11.833L5.86523 11.1973L6.63716 10.5616C6.59268 10.5075 6.57787 10.4759 6.57458 10.4679C6.57238 10.4625 6.57812 10.4753 6.57812 10.5C6.57812 10.5247 6.57238 10.5375 6.57458 10.5321C6.57787 10.5241 6.59268 10.4925 6.63716 10.4384L5.86523 9.80273ZM5.86523 11.1973L5.15813 11.9044L7.78313 14.5294L8.49023 13.8223L9.19734 13.1152L6.57234 10.4902L5.86523 11.1973ZM8.49023 13.8223L7.85453 14.5942C8.21231 14.8888 8.662 15.1094 9.1875 15.1094C9.713 15.1094 10.1627 14.8888 10.5205 14.5942L9.88477 13.8223L9.24906 13.0503C9.19504 13.0948 9.16337 13.1096 9.15538 13.1129C9.15003 13.1151 9.16278 13.1094 9.1875 13.1094C9.21222 13.1094 9.22497 13.1151 9.21962 13.1129C9.21163 13.1096 9.17996 13.0948 9.12594 13.0503L8.49023 13.8223ZM9.88477 13.8223L10.5919 14.5294L15.8419 9.27937L15.1348 8.57227L14.4277 7.86516L9.17766 13.1152L9.88477 13.8223Z" fill="url(#paint1_linear_3268_34094)" mask="url(#path-1-inside-1_3268_34094)"/>
<defs>
<linearGradient id="paint0_linear_3268_34094" x1="6.71512" y1="1.375" x2="9.22265" y2="18.5614" gradientUnits="userSpaceOnUse">
<stop stop-color="#CDB599"/>
<stop offset="1" stop-color="#B49B7E"/>
</linearGradient>
<linearGradient id="paint1_linear_3268_34094" x1="5.86047" y1="2.46221" x2="8.95721" y2="18.6698" gradientUnits="userSpaceOnUse">
<stop stop-color="#F8E4CE"/>
<stop offset="0.701923" stop-color="#997D5A"/>
<stop offset="1" stop-color="#F1D6B6"/>
</linearGradient>
</defs>
</svg>
