<svg width="31" height="36" viewBox="0 0 31 36" fill="none" xmlns="http://www.w3.org/2000/svg">
<path d="M15.4619 10.3384C20.83 10.3384 25.2735 13.5273 26.1152 16.9614H26.083C25.7159 16.2022 24.9408 15.6774 24.041 15.6772C23.1504 15.6773 22.3815 16.1914 22.0098 16.938C21.5966 16.1915 20.7425 15.6772 19.7529 15.6772C18.7632 15.6774 17.9081 16.1912 17.4951 16.938C17.1233 16.1916 16.3554 15.6772 15.4648 15.6772C14.5745 15.6774 13.8054 16.1908 13.4336 16.937C13.0203 16.1911 12.1667 15.6774 11.1777 15.6772C10.1881 15.6773 9.33294 16.1913 8.91992 16.938C8.54817 16.1915 7.78014 15.6774 6.88965 15.6772C5.98992 15.6773 5.21506 16.2023 4.84766 16.9614H4.80859C5.89516 13.5273 10.0938 10.3384 15.4619 10.3384Z" fill="#1D2A3D"/>
<path d="M15.4656 9.82959V26.1521C15.4656 27.2428 14.5814 28.1271 13.4906 28.1271C12.3999 28.1271 11.5156 27.2428 11.5156 26.1521V26.1048" stroke="#1D2A3D" stroke-width="0.981174"/>
<path d="M17.9373 8.16321C17.7078 8.56075 17.1995 8.69696 16.8019 8.46743C16.4044 8.23791 16.2682 7.72962 16.4978 7.33207C16.7273 6.93452 18.005 6.38384 18.005 6.38384C18.005 6.38384 18.1669 7.76572 17.9374 8.16323L17.9373 8.16321Z" fill="#1D2A3D"/>
<path d="M21.5467 10.2467C21.3172 10.6443 20.8089 10.7805 20.4113 10.5509C20.0138 10.3214 19.8776 9.81311 20.1071 9.41556C20.3367 9.01802 21.6143 8.46734 21.6143 8.46734C21.6143 8.46734 21.7763 9.84922 21.5467 10.2467L21.5467 10.2467Z" fill="#1D2A3D"/>
<path d="M20.1053 5.24866C19.8758 5.6462 19.3675 5.78241 18.9699 5.55288C18.5724 5.32336 18.4362 4.81507 18.6657 4.41752C18.8953 4.01997 20.1729 3.46929 20.1729 3.46929C20.1729 3.46929 20.3348 4.85117 20.1053 5.24868L20.1053 5.24866Z" fill="#1D2A3D"/>
<path d="M23.3162 7.33215C23.0867 7.7297 22.5784 7.8659 22.1809 7.63638C21.7833 7.40685 21.6471 6.89856 21.8767 6.50101C22.1062 6.10347 23.3839 5.55279 23.3839 5.55279C23.3839 5.55279 23.5458 6.93467 23.3163 7.33217L23.3162 7.33215Z" fill="#1D2A3D"/>
<path d="M26.535 9.62073C26.3055 10.0183 25.7972 10.1545 25.3996 9.92495C25.0021 9.69543 24.8659 9.18714 25.0954 8.78959C25.3249 8.39204 26.6026 7.84136 26.6026 7.84136C26.6026 7.84136 26.7645 9.22324 26.535 9.62075L26.535 9.62073Z" fill="#1D2A3D"/>
<path d="M12.9491 9.1095C12.7195 9.50704 12.2112 9.64325 11.8137 9.41372C11.4161 9.1842 11.28 8.67591 11.5095 8.27836C11.739 7.88081 13.0167 7.33013 13.0167 7.33013C13.0167 7.33013 13.1786 8.71201 12.9491 9.10952L12.9491 9.1095Z" fill="#1D2A3D"/>
<path d="M30.4375 0.490234V19.0488C30.4375 24.5332 26.7319 28.6144 22.9092 31.3613C21.0071 32.7281 19.1022 33.7456 17.6709 34.4209C16.9559 34.7582 16.3603 35.0092 15.9453 35.1758C15.738 35.259 15.5755 35.3214 15.4658 35.3623H15.4619C15.3522 35.3214 15.1898 35.259 14.9824 35.1758C14.5674 35.0092 13.9719 34.7583 13.2568 34.4209C11.8255 33.7456 9.92061 32.7281 8.01855 31.3613C4.19582 28.6144 0.490234 24.5332 0.490234 19.0488V0.490234H30.4375Z" stroke="#1D2A3D" stroke-width="0.981174"/>
</svg>
