<svg width="31" height="36" viewBox="0 0 31 36" fill="none" xmlns="http://www.w3.org/2000/svg">
<path d="M21.7275 24.3203H9.20312L15.4648 13.5234L21.7275 24.3203Z" stroke="#1D2A3D" stroke-width="0.981174"/>
<path d="M22.5781 17.4517H18.3105L17.7412 16.4702H20.875L15.4648 7.14209L10.0547 16.4702H13.1885L12.6191 17.4517H8.35156L15.4648 5.18701L22.5781 17.4517Z" fill="#1D2A3D"/>
<path d="M30.4375 0.490234V19.0488C30.4375 24.5332 26.7319 28.6144 22.9092 31.3613C21.0071 32.7281 19.1022 33.7456 17.6709 34.4209C16.9559 34.7582 16.3603 35.0092 15.9453 35.1758C15.738 35.259 15.5755 35.3214 15.4658 35.3623H15.4619C15.3522 35.3214 15.1898 35.259 14.9824 35.1758C14.5674 35.0092 13.9719 34.7583 13.2568 34.4209C11.8255 33.7456 9.92061 32.7281 8.01855 31.3613C4.19582 28.6144 0.490234 24.5332 0.490234 19.0488V0.490234H30.4375Z" stroke="#1D2A3D" stroke-width="0.981174"/>
</svg>
