<svg width="31" height="36" viewBox="0 0 31 36" fill="none" xmlns="http://www.w3.org/2000/svg">
<path d="M18.6219 22.6581C18.8264 21.8845 19.0269 21.094 19.0187 20.2908C19.0105 19.4877 18.761 18.6507 18.1924 18.1096C18.086 18.8958 17.5542 19.6103 16.8465 19.9188C17.1819 18.6718 17.1001 17.3106 16.6174 16.1185C16.1346 14.9264 15.251 13.9119 14.1546 13.2862C14.4287 14.2543 14.3224 15.3323 13.8683 16.2242C13.5124 16.9259 12.956 17.5051 12.641 18.2279C12.0028 19.7033 12.5019 21.4449 13.2792 22.8484C11.0456 21.8803 9.14738 19.8723 8.70147 17.4121C8.54193 16.5243 8.57465 15.6113 8.74238 14.7193C8.84056 14.2036 8.98374 13.7005 9.15965 13.2102C9.64238 11.8743 10.3787 10.6527 11.1642 9.47747C11.1437 9.51129 11.1437 9.59161 11.1356 9.62965C11.1233 9.68883 11.1151 9.75224 11.1069 9.81143C11.0946 9.88329 11.0865 9.95515 11.0783 10.0312C11.0742 10.0735 11.066 10.12 11.0619 10.1623C11.0333 10.399 11.0169 10.6315 11.0046 10.8682C10.9842 11.3417 10.9965 11.8152 11.0415 12.2844C11.0783 12.6522 11.1356 13.0199 11.2092 13.3835C11.2092 13.3835 11.291 13.8569 11.3442 14.0979C11.336 14.0641 11.3646 13.9964 11.3687 13.9626C11.381 13.9077 11.3892 13.8569 11.4015 13.802C11.4219 13.7005 11.4465 13.5991 11.471 13.4976C11.5201 13.2947 11.5815 13.096 11.6469 12.8973C11.8065 12.4112 12.011 11.9377 12.2033 11.4685C12.3874 11.0204 12.5633 10.5723 12.7637 10.1327C12.956 9.70574 13.2506 9.33797 13.4428 8.91102C13.4633 8.86452 13.4878 8.81379 13.5042 8.76306C14.0851 7.32156 13.6556 5.66869 13.1319 4.20605C14.6169 5.03883 15.9996 6.10833 17.0265 7.49488C18.0533 8.88142 18.6996 10.6062 18.6383 12.352C19.3051 11.6926 19.5996 10.6611 19.3869 9.73533C20.3155 10.8809 21.1664 12.1111 21.7187 13.4934C22.271 14.8757 22.5083 16.4187 22.1933 17.8771C21.7596 19.8935 20.3114 21.5506 18.626 22.6624L18.6219 22.6581Z" fill="#1D2A3D"/>
<rect x="8.59766" y="24.3198" width="13.7364" height="0.981174" fill="#1D2A3D"/>
<path d="M30.4375 0.490234V19.0488C30.4375 24.5332 26.7319 28.6144 22.9092 31.3613C21.0071 32.7281 19.1022 33.7456 17.6709 34.4209C16.9559 34.7582 16.3603 35.0092 15.9453 35.1758C15.738 35.259 15.5755 35.3214 15.4658 35.3623H15.4619C15.3522 35.3214 15.1898 35.259 14.9824 35.1758C14.5674 35.0092 13.9719 34.7583 13.2568 34.4209C11.8255 33.7456 9.92061 32.7281 8.01855 31.3613C4.19582 28.6144 0.490234 24.5332 0.490234 19.0488V0.490234H30.4375Z" stroke="#1D2A3D" stroke-width="0.981174"/>
</svg>
